<?xml version="1.0" encoding="UTF-8"?>
<svg width="215px" height="146px" viewBox="0 0 215 146" version="1.1" xmlns="http://www.w3.org/2000/svg" xmlns:xlink="http://www.w3.org/1999/xlink">
    <!-- Generator: Sketch 47.1 (45422) - http://www.bohemiancoding.com/sketch -->
    <title>Group 2</title>
    <desc>Created with Sketch.</desc>
    <defs></defs>
    <g id="Page-1" stroke="none" stroke-width="1" fill="none" fill-rule="evenodd">
        <g id="Tablette" transform="translate(-253.000000, -886.000000)">
            <g id="Group-2" transform="translate(253.000000, 886.000000)">
                <path d="M15.8457667,88.012987 L6.64749236,88.012987 L5.33345317,95.3181818 L0,95.3181818 L6.4542513,61.2272727 L16.0390077,61.2272727 L22.493259,95.3181818 L17.1598059,95.3181818 L15.8457667,88.012987 Z M7.72964228,81.8766234 L14.7249685,81.8766234 L11.5944634,64.4415584 L10.8987956,64.4415584 L7.72964228,81.8766234 Z M32.8295085,90.1558442 C33.8086014,90.1558442 34.6137644,89.9691577 35.2450217,89.5957792 C35.8762789,89.2224007 36.3658181,88.719159 36.7136537,88.086039 C37.0614893,87.4529189 37.2998176,86.7224067 37.4286456,85.8944805 C37.5574736,85.0665543 37.6218867,84.2142901 37.6218867,83.3376623 L37.6218867,82.461039 L42.7234506,82.461039 L42.7234506,83.3376623 C42.7234506,87.3961242 41.8796397,90.5210929 40.1919927,92.7126623 C38.5043457,94.9042317 36.0502088,96 32.8295085,96 C29.7376361,96 27.2899405,94.8149469 25.4863483,92.4448052 C23.6827561,90.0746635 22.7809735,86.6169058 22.7809735,82.0714286 L22.7809735,74.474026 C22.7809735,72.2986904 23.0128604,70.3425412 23.4766413,68.6055195 C23.9404222,66.8684978 24.6103178,65.4074735 25.4863483,64.2224026 C26.3623788,63.0373317 27.4187527,62.1282499 28.6555016,61.4951299 C29.8922506,60.8620098 31.2835723,60.5454545 32.8295085,60.5454545 C34.4269759,60.5454545 35.8440628,60.8376594 37.0808117,61.4220779 C38.3175607,62.0064964 39.3546106,62.8506438 40.1919927,63.9545455 C41.0293748,65.0584471 41.6606226,66.3896026 42.0857551,67.9480519 C42.5108875,69.5065013 42.7234506,71.2597305 42.7234506,73.2077922 L42.7234506,74.0844156 L37.6218867,74.0844156 L37.6218867,73.2077922 C37.6218867,72.3960998 37.544591,71.5844196 37.3899974,70.7727273 C37.2354038,69.9610349 36.9777516,69.2305227 36.6170332,68.5811688 C36.2563147,67.9318149 35.7667756,67.4042228 35.1484011,66.9983766 C34.5300267,66.5925304 33.7570702,66.3896104 32.8295085,66.3896104 C31.9792436,66.3896104 31.2449349,66.5925304 30.6265604,66.9983766 C30.0081859,67.4042228 29.4928816,67.9561653 29.080632,68.6542208 C28.6683823,69.3522762 28.365641,70.1639564 28.172399,71.0892857 C27.979157,72.014615 27.8825374,72.9805144 27.8825374,73.987013 L27.8825374,82.5584416 C27.8825374,83.6623432 27.9727157,84.6769434 28.1530749,85.6022727 C28.3334341,86.527602 28.6168515,87.3311654 29.0033355,88.012987 C29.3898196,88.6948086 29.8986826,89.2224007 30.5299399,89.5957792 C31.1611972,89.9691577 31.9277124,90.1558442 32.8295085,90.1558442 Z M44.5184453,61.2272727 L63.9971438,61.2272727 L63.9971438,67.3636364 L56.8085765,67.3636364 L56.8085765,95.3181818 L51.7070126,95.3181818 L51.7070126,67.3636364 L44.5184453,67.3636364 L44.5184453,61.2272727 Z M66.7196956,61.2272727 L84.8070585,61.2272727 L84.8070585,67.3636364 L78.314159,67.3636364 L78.314159,89.1818182 L84.8070585,89.1818182 L84.8070585,95.3181818 L66.7196956,95.3181818 L66.7196956,89.1818182 L73.2125951,89.1818182 L73.2125951,67.3636364 L66.7196956,67.3636364 L66.7196956,61.2272727 Z M86.370164,61.2272727 L91.6263207,61.2272727 L96.9211257,92.1038961 L97.6167935,92.1038961 L102.911598,61.2272727 L108.167755,61.2272727 L102.061338,95.3181818 L92.4765814,95.3181818 L86.370164,61.2272727 Z M109.730861,61.2272727 L127.818224,61.2272727 L127.818224,67.3636364 L121.325324,67.3636364 L121.325324,89.1818182 L127.818224,89.1818182 L127.818224,95.3181818 L109.730861,95.3181818 L109.730861,89.1818182 L116.22376,89.1818182 L116.22376,67.3636364 L109.730861,67.3636364 L109.730861,61.2272727 Z M130.540775,61.2272727 L150.019474,61.2272727 L150.019474,67.3636364 L142.830907,67.3636364 L142.830907,95.3181818 L137.729343,95.3181818 L137.729343,67.3636364 L130.540775,67.3636364 L130.540775,61.2272727 Z M153.128508,61.2272727 L170.211017,61.2272727 L170.211017,67.3636364 L158.230072,67.3636364 L158.230072,75.1558442 L169.747239,75.1558442 L169.747239,81.2922078 L158.230072,81.2922078 L158.230072,89.1818182 L170.674796,89.1818182 L170.674796,95.3181818 L153.128508,95.3181818 L153.128508,61.2272727 Z M161.901652,51 L167.080512,51 L163.834062,57.6233766 L159.891945,57.6233766 L161.901652,51 Z M174.63409,61.2272727 L191.7166,61.2272727 L191.7166,67.3636364 L179.735654,67.3636364 L179.735654,75.1558442 L191.252821,75.1558442 L191.252821,81.2922078 L179.735654,81.2922078 L179.735654,89.1818182 L192.180378,89.1818182 L192.180378,95.3181818 L174.63409,95.3181818 L174.63409,61.2272727 Z M209.434658,71.6493506 C209.434658,70.2857075 209.015973,69.1006544 208.178591,68.0941558 C207.341209,67.0876573 206.16245,66.5844156 204.642279,66.5844156 C203.353999,66.5844156 202.336273,66.9172045 201.589071,67.5827922 C200.841868,68.24838 200.468273,69.149345 200.468273,70.2857143 C200.468273,70.8701328 200.558451,71.3977249 200.73881,71.8685065 C200.919169,72.3392881 201.234793,72.7613618 201.685691,73.1347403 C202.136589,73.5081187 202.729189,73.8409076 203.463509,74.1331169 C204.197829,74.4253261 205.131818,74.7012974 206.265504,74.961039 C209.099721,75.6103929 211.263999,76.6980443 212.758404,78.224026 C214.252809,79.7500076 215,82.0064786 215,84.9935065 L215,85.5779221 C215,87.1688391 214.774554,88.6055131 214.323656,89.887987 C213.872758,91.170461 213.222187,92.2662292 212.371922,93.1753247 C211.521657,94.0844201 210.491048,94.7824651 209.280065,95.2694805 C208.069081,95.7564959 206.703525,96 205.183354,96 C203.405528,96 201.840291,95.6834447 200.487597,95.0503247 C199.134902,94.4172046 198.007674,93.54059 197.105878,92.4204545 C196.204082,91.3003191 195.521304,89.9853972 195.057523,88.4756494 C194.593742,86.9659015 194.361855,85.3181907 194.361855,83.5324675 L194.361855,82.0714286 L199.463419,82.0714286 L199.463419,83.2402597 C199.463419,85.2857245 199.933634,86.9172017 200.874079,88.1347403 C201.814523,89.3522788 203.276699,89.961039 205.260651,89.961039 C206.806587,89.961039 207.953139,89.5389653 208.700342,88.6948052 C209.447544,87.8506451 209.82114,86.8441617 209.82114,85.6753247 C209.82114,85.1233739 209.743844,84.5957817 209.58925,84.0925325 C209.434657,83.5892832 209.164122,83.1347423 208.777638,82.7288961 C208.391154,82.3230499 207.862967,81.9577938 207.193061,81.6331169 C206.523156,81.3084399 205.672903,81.0324687 204.642279,80.8051948 C203.276702,80.5129856 202.027089,80.1314959 200.893403,79.6607143 C199.759716,79.1899327 198.774197,78.564939 197.936815,77.7857143 C197.099433,77.0064896 196.448861,76.0324734 195.98508,74.8636364 C195.521299,73.6947994 195.289412,72.2662422 195.289412,70.5779221 L195.289412,70.2857143 C195.289412,68.8896034 195.514858,67.5990319 195.965756,66.413961 C196.416654,65.2288902 197.047902,64.1980563 197.859518,63.3214286 C198.671135,62.4448008 199.650213,61.7629894 200.796782,61.275974 C201.943352,60.7889586 203.225171,60.5454545 204.642279,60.5454545 C206.239747,60.5454545 207.656834,60.8295426 208.893583,61.3977273 C210.130332,61.9659119 211.167382,62.7370081 212.004764,63.711039 C212.842146,64.6850698 213.473394,65.8051885 213.898526,67.0714286 C214.323658,68.3376687 214.536221,69.6688242 214.536221,71.0649351 L214.536221,72.8181818 L209.434658,72.8181818 L209.434658,71.6493506 Z" id="ACTIVITÉES" fill="#DFBF85" opacity="0.704936594"></path>
                <text id="VOIR-NOS" opacity="0.704936594" font-family="SpaceMono-Regular, Space Mono" font-size="14" font-weight="normal" letter-spacing="3" fill="#DFBF85">
                    <tspan x="63.228" y="50">VOIR NOS</tspan>
                </text>
                <path d="M52,51.6501545 L52,40.0131534 L52,40.0131534 L108.850912,7 L164,40.0131534 L164,51.6501545 M164,94.1709183 L164,105.346982 L108.850912,138 L52,105.346982 L52,94.1709183" id="Path-9" stroke="#DFBF85" stroke-width="0.2"></path>
                <path d="M137.5,24.5 L153.5,0.5" id="Line-12" stroke="#DFBF85" stroke-width="0.2" opacity="0.4" stroke-linecap="square"></path>
                <path d="M62.5,145.5 L78.5,121.5" id="Line-12-Copy" stroke="#DFBF85" stroke-width="0.2" opacity="0.4" stroke-linecap="square"></path>
                <path d="M140.5,143.5 L156.5,119.5" id="Line-12-Copy-2" stroke="#DFBF85" stroke-width="0.2" opacity="0.4" stroke-linecap="square" transform="translate(148.500000, 131.500000) scale(-1, 1) translate(-148.500000, -131.500000) "></path>
                <path d="M62.5,24.5 L78.5,0.5" id="Line-12-Copy-3" stroke="#DFBF85" stroke-width="0.2" opacity="0.4" stroke-linecap="square" transform="translate(70.500000, 12.500000) scale(-1, 1) translate(-70.500000, -12.500000) "></path>
            </g>
        </g>
    </g>
</svg>