<?xml version="1.0" encoding="UTF-8"?>
<svg width="23px" height="30px" viewBox="0 0 23 30" version="1.1" xmlns="http://www.w3.org/2000/svg" xmlns:xlink="http://www.w3.org/1999/xlink">
    <!-- Generator: Sketch 47.1 (45422) - http://www.bohemiancoding.com/sketch -->
    <title>Group 2</title>
    <desc>Created with Sketch.</desc>
    <defs></defs>
    <g id="Page-1" stroke="none" stroke-width="1" fill="none" fill-rule="evenodd">
        <g id="Cart-Copy-2" transform="translate(-93.000000, -33.000000)">
            <g id="cart" transform="translate(93.000000, 33.000000)">
                <g id="Group-2">
                    <g id="shopping-bag" fill-rule="nonzero" fill="#FCEDD3">
                        <path d="M21.8749805,6.25001953 L18.75,6.25001953 L18.75,3.12498047 C18.75,2.95898438 18.684082,2.80025391 18.5668945,2.68306641 L16.066875,0.183105469 C15.9496875,0.0659179688 15.7910156,0 15.6249609,0 L6.87498047,0 C6.70898438,0 6.55025391,0.0659179688 6.43306641,0.183105469 L3.93304688,2.683125 C3.81585937,2.8003125 3.74994141,2.95898438 3.74994141,3.12503906 L3.74994141,6.25001953 L0.625019531,6.25001953 C0.279550781,6.25001953 0,6.52957031 0,6.87503906 L0,27.5000391 C0,28.8788086 1.12119141,30 2.50001953,30 L20.0000391,30 C21.3788086,30 22.5,28.8788086 22.5,27.4999805 L22.5,6.87498047 C22.5,6.52957031 22.2204492,6.25001953 21.8749805,6.25001953 Z M16.2499805,2.13380859 L17.4999609,3.38378906 L17.4999609,6.25001953 L16.2499805,6.25001953 L16.2499805,2.13380859 L16.2499805,2.13380859 Z M7.5,1.24998047 L15,1.24998047 L15,2.49996094 L7.5,2.49996094 L7.5,1.24998047 Z M7.5,3.75 L15,3.75 L15,6.25001953 L7.5,6.25001953 L7.5,3.75 Z M4.99998047,3.38378906 L6.24996094,2.13380859 L6.24996094,6.25001953 L4.99998047,6.25001953 L4.99998047,3.38378906 Z" id="Shape"></path>
                    </g>
                    <text id="C" font-family="Stardate_81316" font-size="12" font-weight="normal" fill="#08091B">
                        <tspan x="7" y="25">C</tspan>
                    </text>
                    <text id="C" transform="translate(12.500000, 21.000000) scale(-1, 1) translate(-12.500000, -21.000000) " font-family="Stardate_81316" font-size="12" font-weight="normal" fill="#08091B">
                        <tspan x="10" y="25">C</tspan>
                    </text>
                </g>
            </g>
        </g>
    </g>
</svg>