<?xml version="1.0" encoding="UTF-8"?>
<svg width="23px" height="30px" viewBox="0 0 23 30" version="1.1" xmlns="http://www.w3.org/2000/svg" xmlns:xlink="http://www.w3.org/1999/xlink">
    <!-- Generator: Sketch 47.1 (45422) - http://www.bohemiancoding.com/sketch -->
    <title>shopping-bag</title>
    <desc>Created with Sketch.</desc>
    <defs></defs>
    <g id="Page-1" stroke="none" stroke-width="1" fill="none" fill-rule="evenodd">
        <g id="Menu_mobile" transform="translate(-33.000000, -99.000000)" fill-rule="nonzero" fill="#FCEDD3">
            <g id="shopping-bag" transform="translate(33.000000, 99.000000)">
                <path d="M22.3610911,6.25001953 L19.1666667,6.25001953 L19.1666667,3.12498047 C19.1666667,2.95898438 19.0992839,2.80025391 18.9794922,2.68306641 L16.4239167,0.183105469 C16.304125,0.0659179688 16.1419271,0 15.9721823,0 L7.02775781,0 C6.85807292,0 6.6958151,0.0659179688 6.57602344,0.183105469 L4.02044792,2.683125 C3.90065625,2.8003125 3.83327344,2.95898438 3.83327344,3.12503906 L3.83327344,6.25001953 L0.638908854,6.25001953 C0.285763021,6.25001953 0,6.52957031 0,6.87503906 L0,27.5000391 C0,28.8788086 1.14610677,30 2.55557552,30 L20.4444844,30 C21.8538932,30 23,28.8788086 23,27.4999805 L23,6.87498047 C23,6.52957031 22.714237,6.25001953 22.3610911,6.25001953 Z M16.6110911,2.13380859 L17.888849,3.38378906 L17.888849,6.25001953 L16.6110911,6.25001953 L16.6110911,2.13380859 L16.6110911,2.13380859 Z M7.66666667,1.24998047 L15.3333333,1.24998047 L15.3333333,2.49996094 L7.66666667,2.49996094 L7.66666667,1.24998047 Z M7.66666667,3.75 L15.3333333,3.75 L15.3333333,6.25001953 L7.66666667,6.25001953 L7.66666667,3.75 Z M5.11109115,3.38378906 L6.38884896,2.13380859 L6.38884896,6.25001953 L5.11109115,6.25001953 L5.11109115,3.38378906 Z M21.7222422,27.4999805 C21.7222422,28.189043 21.1488594,28.7499609 20.4444844,28.7499609 L2.55557552,28.7499609 C1.85120052,28.7499609 1.27781771,28.189043 1.27781771,27.4999805 L1.27781771,7.5 L21.7222422,7.5 L21.7222422,27.4999805 L21.7222422,27.4999805 Z" id="Shape"></path>
            </g>
        </g>
    </g>
</svg>