<?xml version="1.0" encoding="UTF-8"?>
<svg width="248px" height="133px" viewBox="0 0 248 133" version="1.1" xmlns="http://www.w3.org/2000/svg" xmlns:xlink="http://www.w3.org/1999/xlink">
    <!-- Generator: Sketch 47.1 (45422) - http://www.bohemiancoding.com/sketch -->
    <title>Group 7</title>
    <desc>Created with Sketch.</desc>
    <defs></defs>
    <g id="Page-1" stroke="none" stroke-width="1" fill="none" fill-rule="evenodd">
        <g id="Tablette" transform="translate(-243.000000, -3151.000000)">
            <g id="Group-7" transform="translate(243.000000, 3152.000000)">
                <path d="M61,44.6501545 L61,33.0131534 L61,33.0131534 L117.850912,0 L173,33.0131534 L173,44.6501545 M173,87.1709183 L173,98.3469817 L117.850912,131 L61,98.3469817 L61,87.1709183" id="Path-9" stroke="#FCEDD3" stroke-width="0.2"></path>
                <text id="NOUVEAUX" opacity="0.7" font-family="SpaceMono-Regular, Space Mono" font-size="14" font-weight="normal" letter-spacing="3" fill="#DFBF85">
                    <tspan x="71.228" y="45">NOUVEAUX</tspan>
                </text>
                <path d="M0.322,57.6 L18.886,57.6 L18.886,62.892 L5.866,62.892 L5.866,69.612 L18.382,69.612 L18.382,74.904 L5.866,74.904 L5.866,81.708 L19.39,81.708 L19.39,87 L0.322,87 L0.322,57.6 Z M29.788,87.336 C27.183987,86.8599976 25.1680071,85.6280099 23.74,83.64 C22.3119929,81.6519901 21.598,78.9640169 21.598,75.576 L21.598,69.024 C21.598,65.215981 22.5569904,62.2620105 24.475,60.162 C26.3930096,58.0619895 29.0459831,57.012 32.434,57.012 C35.8220169,57.012 38.4749904,58.0619895 40.393,60.162 C42.3110096,62.2620105 43.27,65.215981 43.27,69.024 L43.27,75.576 C43.27,78.9640169 42.5490072,81.6519901 41.107,83.64 C39.6649928,85.6280099 37.6560129,86.8599976 35.08,87.336 L35.08,88.092 C35.08,88.8760039 35.4299965,89.268 36.13,89.268 L38.734,89.268 L38.734,94.308 L33.778,94.308 C32.6299943,94.308 31.6780038,93.9230038 30.922,93.153 C30.1659962,92.3829961 29.788,91.4240057 29.788,90.276 L29.788,87.336 Z M32.434,82.548 C33.442005,82.548 34.2819966,82.3800017 34.954,82.044 C35.6260034,81.7079983 36.1719979,81.2460029 36.592,80.658 C37.0120021,80.0699971 37.3059992,79.3630041 37.474,78.537 C37.6420008,77.7109959 37.726,76.8080049 37.726,75.828 L37.726,68.772 C37.726,67.8479954 37.628001,66.9800041 37.432,66.168 C37.235999,65.3559959 36.9280021,64.6420031 36.508,64.026 C36.0879979,63.4099969 35.5420034,62.9270017 34.87,62.577 C34.1979966,62.2269983 33.3860048,62.052 32.434,62.052 C31.4819952,62.052 30.6700034,62.2269983 29.998,62.577 C29.3259966,62.9270017 28.7800021,63.4099969 28.36,64.026 C27.9399979,64.6420031 27.632001,65.3559959 27.436,66.168 C27.239999,66.9800041 27.142,67.8479954 27.142,68.772 L27.142,75.828 C27.142,76.8080049 27.2259992,77.7109959 27.394,78.537 C27.5620008,79.3630041 27.8559979,80.0699971 28.276,80.658 C28.6960021,81.2460029 29.2419966,81.7079983 29.914,82.044 C30.5860034,82.3800017 31.425995,82.548 32.434,82.548 Z M65.722,57.6 L65.722,76.836 C65.722,80.1960168 64.8330089,82.8279905 63.055,84.732 C61.2769911,86.6360095 58.6380175,87.588 55.138,87.588 C51.6379825,87.588 48.9990089,86.6360095 47.221,84.732 C45.4429911,82.8279905 44.554,80.1960168 44.554,76.836 L44.554,57.6 L50.098,57.6 L50.098,76.836 C50.098,78.5720087 50.5039959,79.9299951 51.316,80.91 C52.1280041,81.8900049 53.4019913,82.38 55.138,82.38 C56.8740087,82.38 58.1479959,81.8900049 58.96,80.91 C59.7720041,79.9299951 60.178,78.5720087 60.178,76.836 L60.178,57.6 L65.722,57.6 Z M68.014,57.6 L87.67,57.6 L87.67,62.892 L80.614,62.892 L80.614,81.708 L87.67,81.708 L87.67,87 L68.014,87 L68.014,81.708 L75.07,81.708 L75.07,62.892 L68.014,62.892 L68.014,57.6 Z M96.262,75.912 L96.262,87 L90.718,87 L90.718,57.6 L102.226,57.6 C103.738008,57.6 105.053994,57.8449975 106.174,58.335 C107.294006,58.8250024 108.224996,59.468996 108.967,60.267 C109.709004,61.065004 110.268998,61.9749949 110.647,62.997 C111.025002,64.0190051 111.214,65.0619947 111.214,66.126 L111.214,67.134 C111.214,68.2260055 111.025002,69.2969947 110.647,70.347 C110.268998,71.3970052 109.709004,72.3349959 108.967,73.161 C108.224996,73.9870041 107.294006,74.6519975 106.174,75.156 C105.053994,75.6600025 103.738008,75.912 102.226,75.912 L96.262,75.912 Z M96.262,70.62 L101.68,70.62 C102.912006,70.62 103.884996,70.2840034 104.599,69.612 C105.313004,68.9399966 105.67,68.0720053 105.67,67.008 L105.67,66.504 C105.67,65.4399947 105.313004,64.5720034 104.599,63.9 C103.884996,63.2279966 102.912006,62.892 101.68,62.892 L96.262,62.892 L96.262,70.62 Z M113.842,57.6 L132.406,57.6 L132.406,62.892 L119.386,62.892 L119.386,69.612 L131.902,69.612 L131.902,74.904 L119.386,74.904 L119.386,81.708 L132.91,81.708 L132.91,87 L113.842,87 L113.842,57.6 Z M134.026,57.6 L143.77,57.6 L145.45,79.692 L145.45,83.976 L146.458,83.976 L146.458,79.692 L148.138,57.6 L157.882,57.6 L157.882,87 L152.842,87 L152.842,67.344 L153.346,60.624 L152.338,60.624 L150.154,87 L141.838,87 L139.57,60.624 L138.562,60.624 L139.066,67.344 L139.066,87 L134.026,87 L134.026,57.6 Z M159.25,57.6 L177.814,57.6 L177.814,62.892 L164.794,62.892 L164.794,69.612 L177.31,69.612 L177.31,74.904 L164.794,74.904 L164.794,81.708 L178.318,81.708 L178.318,87 L159.25,87 L159.25,57.6 Z M195.352,84.228 L196.108,84.228 L196.108,57.6 L201.652,57.6 L201.652,87 L190.816,87 L187.372,60.372 L186.616,60.372 L186.616,87 L181.072,87 L181.072,57.6 L191.908,57.6 L195.352,84.228 Z M203.482,57.6 L224.65,57.6 L224.65,62.892 L216.838,62.892 L216.838,87 L211.294,87 L211.294,62.892 L203.482,62.892 L203.482,57.6 Z M241.81,66.588 C241.81,65.4119941 241.355005,64.3900043 240.445,63.522 C239.534995,62.6539957 238.254008,62.22 236.602,62.22 C235.201993,62.22 234.096004,62.5069971 233.284,63.081 C232.471996,63.6550029 232.066,64.4319951 232.066,65.412 C232.066,65.9160025 232.163999,66.370998 232.36,66.777 C232.556001,67.183002 232.898998,67.5469984 233.389,67.869 C233.879002,68.1910016 234.522996,68.4779987 235.321,68.73 C236.119004,68.9820013 237.133994,69.2199989 238.366,69.444 C241.446015,70.0040028 243.797992,70.9419934 245.422,72.258 C247.046008,73.5740066 247.858,75.5199871 247.858,78.096 L247.858,78.6 C247.858,79.9720069 247.613002,81.2109945 247.123,82.317 C246.632998,83.4230055 245.926005,84.3679961 245.002,85.152 C244.077995,85.9360039 242.958007,86.5379979 241.642,86.958 C240.325993,87.3780021 238.842008,87.588 237.19,87.588 C235.25799,87.588 233.557007,87.3150027 232.087,86.769 C230.616993,86.2229973 229.392005,85.4670048 228.412,84.501 C227.431995,83.5349952 226.690003,82.4010065 226.186,81.099 C225.681997,79.7969935 225.43,78.3760077 225.43,76.836 L225.43,75.576 L230.974,75.576 L230.974,76.584 C230.974,78.3480088 231.484995,79.7549948 232.507,80.805 C233.529005,81.8550053 235.117989,82.38 237.274,82.38 C238.954008,82.38 240.199996,82.0160036 241.012,81.288 C241.824004,80.5599964 242.23,79.692005 242.23,78.684 C242.23,78.2079976 242.146001,77.7530022 241.978,77.319 C241.809999,76.8849978 241.516002,76.4930017 241.096,76.143 C240.675998,75.7929982 240.102004,75.4780014 239.374,75.198 C238.645996,74.9179986 237.722006,74.680001 236.602,74.484 C235.117993,74.2319987 233.760006,73.903002 232.528,73.497 C231.295994,73.090998 230.225005,72.5520034 229.315,71.88 C228.404995,71.2079966 227.698003,70.368005 227.194,69.36 C226.689997,68.351995 226.438,67.1200073 226.438,65.664 L226.438,65.412 C226.438,64.207994 226.682998,63.0950051 227.173,62.073 C227.663002,61.0509949 228.348996,60.1620038 229.231,59.406 C230.113004,58.6499962 231.176994,58.0620021 232.423,57.642 C233.669006,57.2219979 235.061992,57.012 236.602,57.012 C238.338009,57.012 239.877993,57.2569976 241.222,57.747 C242.566007,58.2370024 243.692995,58.9019958 244.603,59.742 C245.513005,60.5820042 246.198998,61.5479945 246.661,62.64 C247.123002,63.7320055 247.354,64.879994 247.354,66.084 L247.354,67.596 L241.81,67.596 L241.81,66.588 Z" id="EQUIPEMENTS" fill="#DFBF85" opacity="0.7"></path>
            </g>
        </g>
    </g>
</svg>