<?xml version="1.0" encoding="UTF-8"?>
<svg width="260px" height="51px" viewBox="0 0 260 51" version="1.1" xmlns="http://www.w3.org/2000/svg" xmlns:xlink="http://www.w3.org/1999/xlink">
    <!-- Generator: Sketch 47.1 (45422) - http://www.bohemiancoding.com/sketch -->
    <title>Group 26</title>
    <desc>Created with Sketch.</desc>
    <defs>
        <rect id="path-1" x="0" y="0" width="260" height="51"></rect>
    </defs>
    <g id="Page-1" stroke="none" stroke-width="1" fill="none" fill-rule="evenodd">
        <g id="Group-26">
            <g id="Rectangle-3">
                <use fill="#DFBF85" fill-rule="evenodd" xlink:href="#path-1"></use>
                <rect stroke="#DFBF85" stroke-width="0.5" x="0.25" y="0.25" width="259.5" height="50.5"></rect>
            </g>
            <path d="M75,18.2884615 L77.1742007,18.2884615 L79.3643881,31.3516484 L79.6521499,31.3516484 L81.8423374,18.2884615 L84.016538,18.2884615 L81.4906284,32.7115385 L77.5259096,32.7115385 L75,18.2884615 Z M85.1675854,23.8928571 C85.1675854,22.0247159 85.532613,20.5755546 86.2626792,19.5453297 C86.9927453,18.5151047 88.0025661,18 89.292172,18 C90.5817779,18 91.5915987,18.5151047 92.3216648,19.5453297 C93.051731,20.5755546 93.4167585,22.0247159 93.4167585,23.8928571 L93.4167585,27.1071429 C93.4167585,29.0302294 93.051731,30.4931269 92.3216648,31.4958791 C91.5915987,32.4986314 90.5817779,33 89.292172,33 C88.0025661,33 86.9927453,32.4986314 86.2626792,31.4958791 C85.532613,30.4931269 85.1675854,29.0302294 85.1675854,27.1071429 L85.1675854,23.8928571 Z M89.292172,30.5274725 C89.6758564,30.5274725 89.9955886,30.4484898 90.2513782,30.290522 C90.5071678,30.1325542 90.7149937,29.9093421 90.8748622,29.6208791 C91.0347307,29.3324161 91.1466369,28.989013 91.2105843,28.5906593 C91.2745317,28.1923057 91.306505,27.7527497 91.306505,27.271978 L91.306505,23.728022 C91.306505,23.274723 91.2692029,22.8489031 91.1945976,22.4505495 C91.1199923,22.0521958 91.0027571,21.7087927 90.8428886,21.4203297 C90.6830201,21.1318667 90.4751942,20.9017866 90.2194046,20.7300824 C89.963615,20.5583783 89.6545406,20.4725275 89.292172,20.4725275 C88.9298034,20.4725275 88.620729,20.5583783 88.3649394,20.7300824 C88.1091498,20.9017866 87.9013238,21.1318667 87.7414553,21.4203297 C87.5815869,21.7087927 87.4643517,22.0521958 87.3897464,22.4505495 C87.3151411,22.8489031 87.277839,23.274723 87.277839,23.728022 L87.277839,27.271978 C87.277839,27.7527497 87.3098122,28.1923057 87.3737596,28.5906593 C87.437707,28.989013 87.5496133,29.3324161 87.7094818,29.6208791 C87.8693503,29.9093421 88.0771762,30.1325542 88.3329658,30.290522 C88.5887554,30.4484898 88.9084876,30.5274725 89.292172,30.5274725 Z M95.3351709,18.2884615 L102.816979,18.2884615 L102.816979,20.8846154 L100.131202,20.8846154 L100.131202,30.1153846 L102.816979,30.1153846 L102.816979,32.7115385 L95.3351709,32.7115385 L95.3351709,30.1153846 L98.0209482,30.1153846 L98.0209482,20.8846154 L95.3351709,20.8846154 L95.3351709,18.2884615 Z M112.648842,32.7115385 L110.538589,32.7115385 L110.538589,28.3846154 C110.538589,28.0549434 110.471978,27.7870889 110.338754,27.581044 C110.20553,27.374999 109.984382,27.271978 109.675303,27.271978 L107.245314,27.271978 L107.245314,32.7115385 L105.135061,32.7115385 L105.135061,18.2884615 L109.419515,18.2884615 C109.995041,18.2884615 110.501284,18.3914825 110.938258,18.5975275 C111.375232,18.8035725 111.740259,19.0885971 112.033352,19.4526099 C112.326444,19.8166227 112.550256,20.2390086 112.704796,20.7197802 C112.859336,21.2005519 112.936604,21.7156566 112.936604,22.2651099 L112.936604,22.7596154 C112.936604,23.3502777 112.81404,23.9031568 112.568908,24.4182692 C112.323777,24.9333817 111.945427,25.3282953 111.433848,25.603022 L111.433848,25.9739011 C111.806874,26.0288464 112.102627,26.2142841 112.321114,26.5302198 C112.539601,26.8461554 112.648842,27.2445031 112.648842,27.7252747 L112.648842,32.7115385 Z M107.245314,24.6758242 L109.259647,24.6758242 C109.771226,24.6758242 110.160234,24.5212928 110.426681,24.2122253 C110.693129,23.9031578 110.826351,23.4670358 110.826351,22.9038462 L110.826351,22.6565934 C110.826351,22.1758218 110.693129,21.7603039 110.426681,21.4100275 C110.160234,21.059751 109.771226,20.8846154 109.259647,20.8846154 L107.245314,20.8846154 L107.245314,24.6758242 Z M126.797133,27.271978 L126.797133,32.7115385 L124.68688,32.7115385 L124.68688,18.2884615 L129.067255,18.2884615 C129.642781,18.2884615 130.143695,18.4086526 130.570011,18.6490385 C130.996327,18.8894243 131.350697,19.2053552 131.633131,19.5968407 C131.915566,19.9883261 132.12872,20.4347502 132.272602,20.9361264 C132.416484,21.4375025 132.488423,21.9491732 132.488423,22.4711538 L132.488423,22.9656593 C132.488423,23.5013763 132.416484,24.0267831 132.272602,24.5418956 C132.12872,25.0570081 131.915566,25.5171683 131.633131,25.9223901 C131.350697,26.3276119 130.996327,26.6538449 130.570011,26.9010989 C130.143695,27.1483529 129.642781,27.271978 129.067255,27.271978 L126.797133,27.271978 Z M126.797133,24.6758242 L128.859427,24.6758242 C129.328374,24.6758242 129.698731,24.5109907 129.970507,24.1813187 C130.242284,23.8516467 130.37817,23.4258268 130.37817,22.9038462 L130.37817,22.6565934 C130.37817,22.1346128 130.242284,21.7087929 129.970507,21.3791209 C129.698731,21.0494489 129.328374,20.8846154 128.859427,20.8846154 L126.797133,20.8846154 L126.797133,24.6758242 Z M134.63065,18.2884615 L136.740904,18.2884615 L136.740904,30.1153846 L141.824697,30.1153846 L141.824697,32.7115385 L134.63065,32.7115385 L134.63065,18.2884615 Z M152.024256,18.2884615 L152.024256,27.7252747 C152.024256,29.3736346 151.685873,30.6648305 151.009096,31.5989011 C150.332319,32.5329717 149.327827,33 147.99559,33 C146.663352,33 145.65886,32.5329717 144.982084,31.5989011 C144.305307,30.6648305 143.966924,29.3736346 143.966924,27.7252747 L143.966924,18.2884615 L146.077178,18.2884615 L146.077178,27.7252747 C146.077178,28.5769273 146.231715,29.2431295 146.540794,29.7239011 C146.849873,30.2046727 147.3348,30.4450549 147.99559,30.4450549 C148.65638,30.4450549 149.141307,30.2046727 149.450386,29.7239011 C149.759465,29.2431295 149.914002,28.5769273 149.914002,27.7252747 L149.914002,18.2884615 L152.024256,18.2884615 Z M159.697905,22.6978022 C159.697905,22.1208762 159.524717,21.6195076 159.178335,21.1936813 C158.831953,20.767855 158.344362,20.5549451 157.715546,20.5549451 C157.182651,20.5549451 156.76167,20.6957404 156.452591,20.9773352 C156.143512,21.25893 155.988975,21.6401075 155.988975,22.1208791 C155.988975,22.3681331 156.026277,22.5913452 156.100882,22.790522 C156.175487,22.9896988 156.306045,23.1682684 156.492558,23.3262363 C156.679071,23.4842041 156.924199,23.6249994 157.227949,23.7486264 C157.531699,23.8722534 157.918042,23.9890104 158.38699,24.0989011 C159.559359,24.3736277 160.454609,24.833788 161.072767,25.4793956 C161.690926,26.1250032 162,27.079664 162,28.3434066 L162,28.5906593 C162,29.2637396 161.906745,29.8715632 161.720232,30.4141484 C161.533718,30.9567335 161.26461,31.4203277 160.9129,31.8049451 C160.561189,32.1895624 160.134879,32.4848891 159.633958,32.6909341 C159.133037,32.8969791 158.568177,33 157.939361,33 C157.203965,33 156.556508,32.8660728 155.996968,32.5982143 C155.437428,32.3303558 154.971152,31.9594804 154.598126,31.4855769 C154.225099,31.0116735 153.942669,30.4553603 153.750827,29.8166209 C153.558985,29.1778814 153.463065,28.480773 153.463065,27.7252747 L153.463065,27.1071429 L155.573319,27.1071429 L155.573319,27.6016484 C155.573319,28.4670373 155.767822,29.1572776 156.156836,29.6723901 C156.545849,30.1875026 157.150676,30.4450549 157.971334,30.4450549 C158.610808,30.4450549 159.085077,30.2664853 159.394157,29.9093407 C159.703236,29.552196 159.857773,29.1263761 159.857773,28.6318681 C159.857773,28.3983505 159.8258,28.1751384 159.761852,27.9622253 C159.697905,27.7493121 159.585999,27.5570064 159.42613,27.3853022 C159.266262,27.213598 159.047778,27.0590666 158.770673,26.9217033 C158.493567,26.78434 158.141862,26.6675829 157.715546,26.5714286 C157.150677,26.4478016 156.633777,26.2864021 156.164829,26.0872253 C155.695882,25.8880485 155.288223,25.623628 154.941841,25.293956 C154.595459,24.9642841 154.326352,24.5522003 154.134509,24.0576923 C153.942667,23.5631843 153.846748,22.9587948 153.846748,22.2445055 L153.846748,22.1208791 C153.846748,21.5302168 153.940003,20.9842058 154.126516,20.4828297 C154.313029,19.9814535 154.574144,19.5453315 154.909868,19.1744505 C155.245592,18.8035696 155.650586,18.5151109 156.124862,18.3090659 C156.599139,18.1030209 157.129361,18 157.715546,18 C158.376336,18 158.962511,18.1201911 159.47409,18.3605769 C159.98567,18.6009627 160.414644,18.9271957 160.761025,19.3392857 C161.107407,19.7513757 161.368522,20.225272 161.544377,20.760989 C161.720232,21.296706 161.808159,21.8598872 161.808159,22.4505495 L161.808159,23.1923077 L159.697905,23.1923077 L159.697905,22.6978022 Z" id="VOIR-PLUS" fill="#FFFFFF"></path>
            <g id="arrow" transform="translate(219.000000, 18.000000)" stroke="#FFFFFF" stroke-linecap="square">
                <path d="M0.5,0.5 L8.5,8.5" id="Line-9"></path>
                <path d="M0.5,8.5 L8.5,16.5" id="Line-9-Copy" transform="translate(4.500000, 12.500000) scale(-1, 1) translate(-4.500000, -12.500000) "></path>
            </g>
        </g>
    </g>
</svg>