<?xml version="1.0" encoding="UTF-8"?>
<svg width="83px" height="46px" viewBox="0 0 83 46" version="1.1" xmlns="http://www.w3.org/2000/svg" xmlns:xlink="http://www.w3.org/1999/xlink">
    <!-- Generator: Sketch 47.1 (45422) - http://www.bohemiancoding.com/sketch -->
    <title>Group 4</title>
    <desc>Created with Sketch.</desc>
    <defs></defs>
    <g id="Page-1" stroke="none" stroke-width="1" fill="none" fill-rule="evenodd">
        <g id="mobile" transform="translate(-282.000000, -18.000000)">
            <g id="Group-4" transform="translate(282.000000, 18.000000)">
                <path d="M0,32.206044 L7.7983879,32.206044 L7.7983879,34.4807692 L0,34.4807692 L0,32.206044 Z M13.3256898,32.1318681 L13.3256898,20.4423077 L24.7113361,20.4423077 L24.7113361,22.9065934 L15.4572492,22.9065934 L15.4572492,30.8049451 L15.7691847,30.8049451 C15.9424831,30.3836975 16.1677676,29.9782529 16.445045,29.5885989 C16.7223224,29.1989449 17.047252,28.8566865 17.4198435,28.5618132 C17.792435,28.2669399 18.2126772,28.0299917 18.6805828,27.8509615 C19.1484885,27.6719313 19.6683758,27.5824176 20.2402604,27.5824176 C21.0720926,27.5824176 21.8389264,27.7509141 22.5407848,28.0879121 C23.2426433,28.4249101 23.8448461,28.8988065 24.3474114,29.5096154 C24.8499767,30.1204243 25.2442246,30.8575964 25.5301669,31.7211538 C25.8161092,32.5847113 25.9590782,33.543035 25.9590782,34.5961538 L25.9590782,35.1648352 C25.9590782,36.217954 25.8204416,37.2131363 25.5431642,38.1504121 C25.2658868,39.0876878 24.8586417,39.9196392 24.3214167,40.6462912 C23.7841918,41.3729432 23.117003,41.9468843 22.3198305,42.3681319 C21.522658,42.7893794 20.6041904,43 19.5644001,43 C18.50728,43 17.5714829,42.8104415 16.7569805,42.4313187 C15.9424781,42.0521959 15.2579598,41.5256444 14.703405,40.8516484 C14.1488502,40.1776523 13.728608,39.3825595 13.4426656,38.4663462 C13.1567233,37.5501328 13.0137543,36.5549504 13.0137543,35.4807692 L13.0137543,34.5961538 L15.1973029,34.5961538 L15.1973029,35.2912088 C15.1973029,37.039386 15.6002156,38.3504993 16.406053,39.2245879 C17.2118905,40.0986765 18.2646623,40.5357143 19.5644001,40.5357143 C20.2575936,40.5357143 20.8684612,40.3830143 21.3970213,40.0776099 C21.9255813,39.7722054 22.3674856,39.3614953 22.7227472,38.845467 C23.0780089,38.3294388 23.342285,37.7291701 23.5155833,37.0446429 C23.6888817,36.3601156 23.7755296,35.6492711 23.7755296,34.9120879 L23.7755296,34.7225275 C23.7755296,34.0695938 23.6845493,33.4587941 23.502586,32.8901099 C23.3206227,32.3214257 23.0693439,31.8264673 22.7487419,31.4052198 C22.4281399,30.9839723 22.0382244,30.6522448 21.5789837,30.4100275 C21.119743,30.1678101 20.6215176,30.0467033 20.0842927,30.0467033 C19.7203661,30.0467033 19.3867717,30.1098895 19.0834995,30.2362637 C18.7802274,30.362638 18.5159513,30.525869 18.2906634,30.7259615 C18.0653756,30.9260541 17.8790826,31.1524713 17.731779,31.4052198 C17.5844754,31.6579683 17.4848303,31.900182 17.4328408,32.1318681 L13.3256898,32.1318681 Z M30.2106438,29.0357143 C30.2106438,26.1712311 30.7738551,23.9491837 31.9002946,22.3695055 C33.026734,20.7898273 34.5950608,20 36.6053219,20 C38.6155831,20 40.1839098,20.7898273 41.3103493,22.3695055 C42.4367887,23.9491837 43,26.1712311 43,29.0357143 L43,33.9642857 C43,36.9130184 42.4367887,39.1561278 41.3103493,40.6936813 C40.1839098,42.2312348 38.6155831,43 36.6053219,43 C34.5950608,43 33.026734,42.2312348 31.9002946,40.6936813 C30.7738551,39.1561278 30.2106438,36.9130184 30.2106438,33.9642857 L30.2106438,29.0357143 Z M36.6053219,40.5989011 C38.0090388,40.5989011 39.0618106,40.0038979 39.763669,38.8138736 C40.4655274,37.6238494 40.8164514,35.94415 40.8164514,33.7747253 L40.8164514,29.2252747 C40.8164514,28.2142807 40.7298035,27.2928155 40.5565051,26.4608516 C40.3832068,25.6288878 40.1189307,24.9127777 39.763669,24.3125 C39.4084074,23.7122223 38.9665031,23.2435914 38.4379431,22.9065934 C37.909383,22.5695954 37.2985154,22.4010989 36.6053219,22.4010989 C35.8947986,22.4010989 35.2795986,22.5695954 34.7597035,22.9065934 C34.2398083,23.2435914 33.8022365,23.7122223 33.4469748,24.3125 C33.0917132,24.9127777 32.8274371,25.6288878 32.6541387,26.4608516 C32.4808403,27.2928155 32.3941925,28.2142807 32.3941925,29.2252747 L32.3941925,33.7747253 C32.3941925,35.94415 32.7451164,37.6238494 33.4469748,38.8138736 C34.1488332,40.0038979 35.2016051,40.5989011 36.6053219,40.5989011 Z M34.9416658,31.5 C34.9416658,30.9523782 35.1062968,30.4784819 35.4355637,30.0782967 C35.7648307,29.6781116 36.1547461,29.478022 36.6053219,29.478022 C37.0558977,29.478022 37.4458132,29.6781116 37.7750801,30.0782967 C38.104347,30.4784819 38.268978,30.9523782 38.268978,31.5 C38.268978,32.0476218 38.104347,32.5215181 37.7750801,32.9217033 C37.4458132,33.3218884 37.0558977,33.521978 36.6053219,33.521978 C36.1547461,33.521978 35.7648307,33.3218884 35.4355637,32.9217033 C35.1062968,32.5215181 34.9416658,32.0476218 34.9416658,31.5 Z" id="-50" fill="#FCEDD3"></path>
                <path d="M17.46,2 L19.06,2 L20,8.64 L20.12,8.64 L21.06,2 L22.66,2 L22.66,9 L21.88,9 L21.88,2.36 L21.76,2.36 L20.82,9 L19.3,9 L18.36,2.36 L18.24,2.36 L18.24,9 L17.46,9 L17.46,2 Z M28.2355558,7.26 L25.2355558,7.26 L24.7255558,9 L23.8255558,9 L25.9455558,2 L27.5255558,2 L29.6455558,9 L28.7455558,9 L28.2355558,7.26 Z M26.6755558,2.36 L25.4655558,6.48 L28.0055558,6.48 L26.7955558,2.36 L26.6755558,2.36 Z M35.6011116,9 L34.7611116,9 L34.7611116,6.66 C34.7611116,6.4866658 34.721112,6.3533338 34.6411116,6.26 C34.5611112,6.1666662 34.4211126,6.12 34.2211116,6.12 L32.0411116,6.12 L32.0411116,9 L31.2011116,9 L31.2011116,2 L33.7011116,2 C34.0611134,2 34.3744436,2.05166615 34.6411116,2.155 C34.9077796,2.25833385 35.1294441,2.3966658 35.3061116,2.57 C35.4827791,2.7433342 35.6161111,2.94499885 35.7061116,3.175 C35.796112,3.40500115 35.8411116,3.6466654 35.8411116,3.9 L35.8411116,4.2 C35.8411116,4.4600013 35.7694456,4.7199987 35.6261116,4.98 C35.4827775,5.2400013 35.2611131,5.4399993 34.9611116,5.58 L34.9611116,5.7 C35.1611126,5.7333335 35.3177777,5.8133327 35.4311116,5.94 C35.5444455,6.0666673 35.6011116,6.2466655 35.6011116,6.48 L35.6011116,9 Z M32.0411116,5.34 L33.6011116,5.34 C34.0744473,5.34 34.4261104,5.23833435 34.6561116,5.035 C34.8861128,4.83166565 35.0011116,4.5333353 35.0011116,4.14 L35.0011116,3.96 C35.0011116,3.6066649 34.8861128,3.32166775 34.6561116,3.105 C34.4261104,2.88833225 34.0744473,2.78 33.6011116,2.78 L32.0411116,2.78 L32.0411116,5.34 Z M41.7366674,4.02 C41.7366674,3.7933322 41.6916679,3.5933342 41.6016674,3.42 C41.511667,3.2466658 41.3900015,3.1033339 41.2366674,2.99 C41.0833333,2.8766661 40.9066684,2.7900003 40.7066674,2.73 C40.5066664,2.6699997 40.2966685,2.64 40.0766674,2.64 C39.8833331,2.64 39.7000016,2.66499975 39.5266674,2.715 C39.3533332,2.76500025 39.1983348,2.8366662 39.0616674,2.93 C38.925,3.0233338 38.8166678,3.13833265 38.7366674,3.275 C38.656667,3.41166735 38.6166674,3.5699991 38.6166674,3.75 L38.6166674,3.81 C38.6166674,4.0033343 38.656667,4.16833265 38.7366674,4.305 C38.8166678,4.44166735 38.9349999,4.55833285 39.0916674,4.655 C39.2483348,4.75166715 39.4433329,4.83166635 39.6766674,4.895 C39.9100019,4.95833365 40.1833325,5.0133331 40.4966674,5.06 C41.2300044,5.1733339 41.769999,5.38833175 42.1166674,5.705 C42.4633358,6.02166825 42.6366674,6.446664 42.6366674,6.98 L42.6366674,7.1 C42.6366674,7.4000015 42.5850012,7.67499875 42.4816674,7.925 C42.3783335,8.17500125 42.2250018,8.3899991 42.0216674,8.57 C41.818333,8.7500009 41.5666689,8.8899995 41.2666674,8.99 C40.9666659,9.0900005 40.6200027,9.14 40.2266674,9.14 C39.7799985,9.14 39.3850025,9.07500065 39.0416674,8.945 C38.6983324,8.81499935 38.4116686,8.63500115 38.1816674,8.405 C37.9516663,8.17499885 37.776668,7.90500155 37.6566674,7.595 C37.5366668,7.28499845 37.4766674,6.9466685 37.4766674,6.58 L37.4766674,6.28 L38.3166674,6.28 L38.3166674,6.52 C38.3166674,7.1333364 38.484999,7.5933318 38.8216674,7.9 C39.1583357,8.2066682 39.6266644,8.36 40.2266674,8.36 C40.74667,8.36 41.1383328,8.24500115 41.4016674,8.015 C41.665002,7.78499885 41.7966674,7.4800019 41.7966674,7.1 L41.7966674,7.04 C41.7966674,6.6733315 41.6616688,6.3933343 41.3916674,6.2 C41.1216661,6.0066657 40.6833371,5.8666671 40.0766674,5.78 C39.7233323,5.7333331 39.4050022,5.66166715 39.1216674,5.565 C38.8383326,5.46833285 38.5966684,5.34166745 38.3966674,5.185 C38.1966664,5.02833255 38.0433346,4.8400011 37.9366674,4.62 C37.8300002,4.3999989 37.7766674,4.1400015 37.7766674,3.84 L37.7766674,3.72 C37.7766674,3.4466653 37.8333335,3.1966678 37.9466674,2.97 C38.0600013,2.7433322 38.218333,2.5466675 38.4216674,2.38 C38.6250017,2.2133325 38.8683326,2.08500045 39.1516674,1.995 C39.4350022,1.90499955 39.7466657,1.86 40.0866674,1.86 C40.4800027,1.86 40.8316658,1.9166661 41.1416674,2.03 C41.4516689,2.1433339 41.713333,2.29499905 41.9266674,2.485 C42.1400018,2.67500095 42.3016669,2.89833205 42.4116674,3.155 C42.5216679,3.41166795 42.5766674,3.6799986 42.5766674,3.96 L42.5766674,4.38 L41.7366674,4.38 L41.7366674,4.02 Z" id="MARS-METÉO" fill="#DFBF85"></path>
                <polygon id="Path" fill="#FCEDD3" points="50.837779 2 52.437779 2 53.377779 8.64 53.497779 8.64 54.437779 2 56.037779 2 56.037779 9 55.257779 9 55.257779 2.36 55.137779 2.36 54.197779 9 52.677779 9 51.737779 2.36 51.617779 2.36 51.617779 9 50.837779 9"></polygon>
                <polygon id="Path" fill="#FCEDD3" points="57.9933348 2 62.2333348 2 62.2333348 2.78 58.8333348 2.78 58.8333348 5.1 62.1733348 5.1 62.1733348 5.88 58.8333348 5.88 58.8333348 8.22 62.2933348 8.22 62.2933348 9 57.9933348 9"></polygon>
                <polygon id="Path" fill="#FCEDD3" points="64.3288906 2 69.2488906 2 69.2488906 2.78 67.2088906 2.78 67.2088906 9 66.3688906 9 66.3688906 2.78 64.3288906 2.78"></polygon>
                <polygon id="Path" fill="#FCEDD3" points="71.3444464 2 75.5844464 2 75.5844464 2.78 72.1844464 2.78 72.1844464 5.1 75.5244464 5.1 75.5244464 5.88 72.1844464 5.88 72.1844464 8.22 75.6444464 8.22 75.6444464 9 71.3444464 9"></polygon>
                <polygon id="Path" fill="#FCEDD3" points="74.7544464 0.08 73.9144464 1.26 73.1944464 1.26 73.8544464 0.08"></polygon>
                <path d="M80.1400022,8.36 C80.6800049,8.36 81.0850009,8.17500185 81.3550022,7.805 C81.6250036,7.43499815 81.7600022,6.9066701 81.7600022,6.22 L81.7600022,4.78 C81.7600022,4.1399968 81.6250036,3.6233353 81.3550022,3.23 C81.0850009,2.8366647 80.6800049,2.64 80.1400022,2.64 C79.5999995,2.64 79.1950036,2.8366647 78.9250022,3.23 C78.6550009,3.6233353 78.5200022,4.1399968 78.5200022,4.78 L78.5200022,6.22 C78.5200022,6.9066701 78.6550009,7.43499815 78.9250022,7.805 C79.1950036,8.17500185 79.5999995,8.36 80.1400022,8.36 Z M77.6800022,4.72 C77.6800022,3.8133288 77.8966667,3.1100025 78.3300022,2.61 C78.7633377,2.1099975 79.366665,1.86 80.1400022,1.86 C80.9133394,1.86 81.5166667,2.1099975 81.9500022,2.61 C82.3833377,3.1100025 82.6000022,3.8133288 82.6000022,4.72 L82.6000022,6.28 C82.6000022,7.213338 82.3833377,7.9233309 81.9500022,8.41 C81.5166667,8.8966691 80.9133394,9.14 80.1400022,9.14 C79.366665,9.14 78.7633377,8.8966691 78.3300022,8.41 C77.8966667,7.9233309 77.6800022,7.213338 77.6800022,6.28 L77.6800022,4.72 Z" id="Path" fill="#FCEDD3"></path>
                <g id="winds-lines-weather-symbol" transform="translate(56.000000, 21.000000)" fill-rule="nonzero" fill="#FCEDD3">
                    <path d="M3.85716176,11.5384683 L21.2143235,11.5384683 C24.4099412,11.5384683 27,8.95578987 27,5.76923415 C27,2.58267844 24.4099412,0 21.2142794,0 L21.2142794,1.92306339 C23.9355,2.43363377 25.0714412,3.64517162 25.0714412,5.76923415 C25.0714412,7.89329669 22.8410294,9.61540492 20.0889265,9.61540492 L3.85716176,9.61540492 C3.32488235,9.61540492 2.89288235,10.0461739 2.89288235,10.5769366 C2.89283824,11.1076993 3.32483824,11.5384683 3.85716176,11.5384683 Z M8.67855882,7.69229754 L20.25,7.69229754 C20.7822794,7.69229754 21.2142794,7.26152853 21.2142794,6.73076585 C21.2142794,6.20000317 20.7822794,5.76923415 20.25,5.76923415 L8.67855882,5.76923415 C8.14627941,5.76923415 7.71427941,6.20000317 7.71427941,6.73076585 C7.71427941,7.26152853 8.14627941,7.69229754 8.67855882,7.69229754 Z M13.5019412,17.3077025 C13.5009706,17.3077025 13.5009706,17.3077025 13.5,17.3077025 L5.78572059,17.3077025 C5.25344118,17.3077025 4.82144118,17.7384715 4.82144118,18.2691902 C4.82144118,18.7999528 5.25344118,19.2307219 5.78572059,19.2307219 L13.5,19.2307219 C14.5655294,19.2307219 15.4285588,20.0912921 15.4285588,21.1537852 C15.4285588,22.2162784 14.5655294,23.0768926 13.5,23.0768926 L13.5,24.999956 C15.6300882,24.999956 17.3571618,23.2778478 17.3571618,21.1537852 C17.3571618,19.0307785 15.6311029,17.3086703 13.5019412,17.3077025 Z M21.2142794,13.4615317 L0.964279412,13.4615317 C0.432,13.4615317 0,13.8923007 0,14.4230634 C0,14.9538261 0.432,15.3845951 0.964279412,15.3845951 L20.0889706,15.3845951 C22.8410735,15.3845951 25.0714853,17.1067033 25.0714853,19.2307658 C25.0714853,21.3548284 23.4235147,23.0769366 19.2857206,23.0769366 C19.2857206,23.0769366 19.2857206,23.9048208 19.2857206,25 L21.2143235,25 C24.4099412,25 27,22.4173216 27,19.2307658 C27,16.0442101 24.4099412,13.4615317 21.2142794,13.4615317 Z" id="Shape"></path>
                </g>
                <text id="C" font-family="SpaceMono-Regular, Space Mono" font-size="10" font-weight="normal" letter-spacing="0.555555761" fill="#FCEDD3">
                    <tspan x="47" y="28">C</tspan>
                </text>
            </g>
        </g>
    </g>
</svg>