<?xml version="1.0" encoding="UTF-8"?>
<svg width="148px" height="133px" viewBox="0 0 148 133" version="1.1" xmlns="http://www.w3.org/2000/svg" xmlns:xlink="http://www.w3.org/1999/xlink">
    <!-- Generator: Sketch 47.1 (45422) - http://www.bohemiancoding.com/sketch -->
    <title>Group 9</title>
    <desc>Created with Sketch.</desc>
    <defs></defs>
    <g id="Page-1" stroke="none" stroke-width="1" fill="none" fill-rule="evenodd">
        <g id="mobile-copy" transform="translate(-84.000000, -4859.000000)">
            <g id="Group-9" transform="translate(84.000000, 4860.000000)">
                <path d="M0,56.6730769 L9.73213669,56.6730769 C13.0528299,56.6730769 15.517769,57.6426185 17.127028,59.5817308 C18.736287,61.520843 19.5409044,64.5256207 19.5409044,68.5961538 L19.5409044,78.4038462 C19.5409044,82.4743793 18.736287,85.479157 17.127028,87.4182692 C15.517769,89.3573815 13.0528299,90.3269231 9.73213669,90.3269231 L0,90.3269231 L0,84.2211538 L2.52882292,84.2211538 L2.52882292,62.7307692 L0,62.7307692 L0,56.6730769 Z M9.73213669,84.2692308 C11.4946585,84.2692308 12.727128,83.7484026 13.4295823,82.7067308 C14.1320366,81.6650589 14.4832585,80.0384726 14.4832585,77.8269231 L14.4832585,68.5961538 C14.4832585,66.6730673 14.1320366,65.2147486 13.4295823,64.2211538 C12.727128,63.2275591 11.4946585,62.7307692 9.73213669,62.7307692 L7.58646876,62.7307692 L7.58646876,84.2692308 L9.73213669,84.2692308 Z M22.6998044,56.6730769 L39.6352549,56.6730769 L39.6352549,62.7307692 L27.7574502,62.7307692 L27.7574502,70.4230769 L39.1754689,70.4230769 L39.1754689,76.4807692 L27.7574502,76.4807692 L27.7574502,84.2692308 L40.0950408,84.2692308 L40.0950408,90.3269231 L22.6998044,90.3269231 L22.6998044,56.6730769 Z M63.0417673,56.6730769 L71.9309631,56.6730769 L73.463583,81.9615385 L73.463583,86.8653846 L74.383155,86.8653846 L74.383155,81.9615385 L75.9157749,56.6730769 L84.8049707,56.6730769 L84.8049707,90.3269231 L80.2071108,90.3269231 L80.2071108,67.8269231 L80.6668968,60.1346154 L79.7473248,60.1346154 L77.7549189,90.3269231 L70.1684501,90.3269231 L68.0994132,60.1346154 L67.1798412,60.1346154 L67.6396272,67.8269231 L67.6396272,90.3269231 L63.0417673,90.3269231 L63.0417673,56.6730769 Z M99.8033598,83.1153846 L90.6842711,83.1153846 L89.3815441,90.3269231 L84.0940053,90.3269231 L90.4926936,56.6730769 L99.9949373,56.6730769 L106.393626,90.3269231 L101.106087,90.3269231 L99.8033598,83.1153846 Z M91.7571051,77.0576923 L98.6922103,77.0576923 L95.5886549,59.8461538 L94.898976,59.8461538 L91.7571051,77.0576923 Z M125.645035,90.3269231 L120.587389,90.3269231 L120.587389,80.2307692 C120.587389,79.4615346 120.427743,78.8365409 120.108446,78.3557692 C119.789148,77.8749976 119.259122,77.6346154 118.518352,77.6346154 L112.694397,77.6346154 L112.694397,90.3269231 L107.636751,90.3269231 L107.636751,56.6730769 L117.905304,56.6730769 C119.284669,56.6730769 120.497981,56.9134591 121.545277,57.3942308 C122.592572,57.8750024 123.467434,58.5400599 124.169888,59.3894231 C124.872343,60.2387863 125.408754,61.2243534 125.779139,62.3461538 C126.149524,63.4679543 126.334714,64.6698654 126.334714,65.9519231 L126.334714,67.1057692 C126.334714,68.4839812 126.040965,69.7740325 125.453458,70.9759615 C124.86595,72.1778906 123.959159,73.0993558 122.733057,73.7403846 L122.733057,74.6057692 C123.62709,74.733975 124.33592,75.166663 124.859567,75.9038462 C125.383215,76.6410293 125.645035,77.5705072 125.645035,78.6923077 L125.645035,90.3269231 Z M112.694397,71.5769231 L117.522149,71.5769231 C118.748251,71.5769231 119.680586,71.2163498 120.319181,70.4951923 C120.957776,69.7740349 121.277068,68.7564168 121.277068,67.4423077 L121.277068,66.8653846 C121.277068,65.7435841 120.957776,64.7740425 120.319181,63.9567308 C119.680586,63.139419 118.748251,62.7307692 117.522149,62.7307692 L112.694397,62.7307692 L112.694397,71.5769231 Z M142.482568,66.9615385 C142.482568,65.6153779 142.067488,64.4455178 141.237314,63.4519231 C140.407141,62.4583284 139.23853,61.9615385 137.731446,61.9615385 C136.454257,61.9615385 135.445292,62.2900608 134.704522,62.9471154 C133.963752,63.60417 133.593372,64.4935841 133.593372,65.6153846 C133.593372,66.1923106 133.682774,66.7131387 133.861581,67.1778846 C134.040388,67.6426305 134.353294,68.059293 134.800311,68.4278846 C135.247327,68.7964762 135.834825,69.1249986 136.562824,69.4134615 C137.290822,69.7019245 138.21677,69.9743577 139.340697,70.2307692 C142.150515,70.8717981 144.296161,71.9455053 145.777701,73.4519231 C147.259241,74.9583409 148,77.1858827 148,80.1346154 L148,80.7115385 C148,82.2820591 147.776495,83.7003142 147.329479,84.9663462 C146.882462,86.2323781 146.237491,87.3140981 145.394546,88.2115385 C144.551601,89.1089788 143.529864,89.7980745 142.329306,90.2788462 C141.128748,90.7596178 139.774947,91 138.267863,91 C136.505342,91 134.953579,90.6875031 133.61253,90.0625 C132.271481,89.4374969 131.153957,88.5721209 130.259924,87.4663462 C129.365891,86.3605714 128.688991,85.0625075 128.229203,83.5721154 C127.769414,82.0817233 127.539524,80.455137 127.539524,78.6923077 L127.539524,77.25 L132.597169,77.25 L132.597169,78.4038462 C132.597169,80.423087 133.063337,82.0336478 133.995685,83.2355769 C134.928034,84.437506 136.377622,85.0384615 138.344494,85.0384615 C139.877122,85.0384615 141.013804,84.621799 141.754574,83.7884615 C142.495344,82.955124 142.865723,81.9615442 142.865723,80.8076923 C142.865723,80.2628178 142.789093,79.7419897 142.63583,79.2451923 C142.482567,78.748395 142.214362,78.2996815 141.831205,77.8990385 C141.448048,77.4983954 140.924408,77.1378221 140.260269,76.8173077 C139.596131,76.4967933 138.753198,76.2243601 137.731446,76 C136.377625,75.711537 135.13877,75.3349382 134.014843,74.8701923 C132.890916,74.4054464 131.913881,73.7884654 131.083707,73.0192308 C130.253534,72.2499962 129.608563,71.2884673 129.148775,70.1346154 C128.688986,68.9807635 128.459096,67.5705212 128.459096,65.9038462 L128.459096,65.6153846 C128.459096,64.2371726 128.6826,62.9631469 129.129617,61.7932692 C129.576633,60.6233916 130.202447,59.6057736 131.007076,58.7403846 C131.811706,57.8749957 132.782355,57.2019255 133.919054,56.7211538 C135.055753,56.2403822 136.326538,56 137.731446,56 C139.315162,56 140.720049,56.2804459 141.946151,56.8413462 C143.172253,57.4022464 144.200376,58.1634567 145.030549,59.125 C145.860722,60.0865433 146.486536,61.1923014 146.908008,62.4423077 C147.329481,63.6923139 147.540214,65.0064034 147.540214,66.3846154 L147.540214,68.1153846 L142.482568,68.1153846 L142.482568,66.9615385 Z" id="DE-MARS" fill="#DFBF85" opacity="0.7"></path>
                <text id="A-PROPOS" opacity="0.7" font-family="SpaceMono-Regular, Space Mono" font-size="14" font-weight="normal" letter-spacing="3" fill="#DFBF85">
                    <tspan x="28.228" y="43">A PROPOS</tspan>
                </text>
                <path d="M18,44.6501545 L18,33.0131534 L18,33.0131534 L74.8509116,0 L130,33.0131534 L130,44.6501545 M130,87.1709183 L130,98.3469817 L74.8509116,131 L18,98.3469817 L18,87.1709183" id="Path-9" stroke="#FCEDD3" stroke-width="0.2"></path>
            </g>
        </g>
    </g>
</svg>