<?xml version="1.0" encoding="UTF-8"?>
<svg width="26px" height="30px" viewBox="0 0 26 30" version="1.1" xmlns="http://www.w3.org/2000/svg" xmlns:xlink="http://www.w3.org/1999/xlink">
    <!-- Generator: Sketch 47.1 (45422) - http://www.bohemiancoding.com/sketch -->
    <title>avatar</title>
    <desc>Created with Sketch.</desc>
    <defs></defs>
    <g id="Page-1" stroke="none" stroke-width="1" fill="none" fill-rule="evenodd">
        <g id="Profil_tablette" transform="translate(-31.000000, -167.000000)" fill-rule="nonzero" fill="#FCEDD3">
            <g id="avatar" transform="translate(31.000000, 167.000000)">
                <path d="M12.6942879,16.1538462 C12.7254742,16.1538462 12.7566606,16.1538462 12.7940842,16.1538462 C12.8065587,16.1538462 12.8190332,16.1538462 12.8315078,16.1538462 C12.8502196,16.1538462 12.8751686,16.1538462 12.8938804,16.1538462 C14.7213996,16.1228049 16.1996318,15.483356 17.2911535,14.2603323 C19.6925012,11.5659552 19.2933161,6.947023 19.2496553,6.50623781 C19.0937236,3.19724472 17.5219324,1.61414297 16.2245809,0.875362147 C15.2578045,0.322828593 14.1288592,0.0248329687 12.8689314,0 L12.8252705,0 C12.8190332,0 12.8065587,0 12.8003214,0 L12.7628978,0 C12.0705612,0 10.7108371,0.111748359 9.40724832,0.850529179 C8.0974223,1.58931 6.50068201,3.17241175 6.34475034,6.50623781 C6.30108947,6.947023 5.9019044,11.5659552 8.3032521,14.2603323 C9.38853652,15.483356 10.8667687,16.1228049 12.6942879,16.1538462 Z M8.01010056,6.66144386 C8.01010056,6.64281913 8.01633783,6.62419441 8.01633783,6.61177792 C8.22216763,2.16046828 11.3969364,1.68243363 12.7566606,1.68243363 L12.7816096,1.68243363 C12.7940842,1.68243363 12.812796,1.68243363 12.8315078,1.68243363 C14.5155698,1.71968308 17.3784752,2.40258972 17.5718305,6.61177792 C17.5718305,6.63040265 17.5718305,6.64902738 17.5780678,6.66144386 C17.584305,6.70490156 18.0209137,10.9265062 16.0374629,13.1490569 C15.2515673,14.0306273 14.2037065,14.4652043 12.8252705,14.4776208 C12.812796,14.4776208 12.8065587,14.4776208 12.7940842,14.4776208 L12.7940842,14.4776208 C12.7816096,14.4776208 12.7753724,14.4776208 12.7628978,14.4776208 C11.3906991,14.4652043 10.3366011,14.0306273 9.55694272,13.1490569 C7.57972916,10.9389227 8.0038633,6.69869331 8.01010056,6.66144386 Z" id="Shape"></path>
                <path d="M25.5926605,23.8525066 C25.5926605,23.7844075 25.5864295,23.7348808 25.5864295,23.6791634 C25.5490431,22.4533792 25.4680393,19.5870253 22.7637592,18.6707825 C19.8912404,17.9402647 16.5545928,14.3306491 16.5296685,14.3120766 C16.1495738,14.045871 15.6261648,14.1387334 15.3582292,14.516374 C15.0902936,14.8940146 15.2848356,15.3697628 15.5638542,15.6802499 C16.8943285,17.1607789 9.63833328,17.4112915 10.0305023,15.674059 C10.4105969,15.4078534 10.5040628,14.8878237 10.2361273,14.5101831 C9.96819166,14.1325426 9.44478259,14.0396801 9.06468791,14.3058858 C9.03976367,14.3244583 5.71557818,17.9340739 2.89290786,18.6460192 C0.126317086,19.5870253 0.0453133019,22.4533792 0.00792694012,23.6729725 C0.00792694012,23.72869 0.00792694012,23.7782166 0.00169587981,23.8277433 C-0.00453518049,24.1682389 -0.0107662408,25.8211903 0.319479955,26.6507614 C0.381790558,26.811723 0.493949644,26.9479212 0.643495091,27.0407836 C0.8304269,27.1646002 5.31055926,30 12.8065248,30 C20.3024904,30 24.7826227,27.1584094 24.9695545,27.0407836 C25.1128689,26.9479212 25.2312591,26.811723 25.2935697,26.6507614 C25.6051227,25.8273811 25.5988916,24.1744297 25.5926605,23.8525066 Z" id="Shape"></path>
            </g>
        </g>
    </g>
</svg>