<?xml version="1.0" encoding="UTF-8"?>
<svg width="56px" height="56px" viewBox="0 0 56 56" version="1.1" xmlns="http://www.w3.org/2000/svg" xmlns:xlink="http://www.w3.org/1999/xlink">
    <!-- Generator: Sketch 47.1 (45422) - http://www.bohemiancoding.com/sketch -->
    <title>information</title>
    <desc>Created with Sketch.</desc>
    <defs></defs>
    <g id="Page-1" stroke="none" stroke-width="1" fill="none" fill-rule="evenodd">
        <g id="mobile-copy" transform="translate(-133.000000, -7351.000000)" fill-rule="nonzero" fill="#DFBF85">
            <g id="Group-15" transform="translate(61.000000, 7351.000000)">
                <g id="information" transform="translate(72.000000, 0.000000)">
                    <path d="M28,0 C12.5608,0 0,12.5609697 0,28.0001697 C0,43.4393697 12.5608,56 28,56 C43.4392,56 56,43.4393697 56,28.0001697 C56,12.5609697 43.4392,0 28,0 Z M28,50.9090909 C15.3677576,50.9090909 5.09090909,40.6322424 5.09090909,28.0001697 C5.09090909,15.368097 15.3677576,5.09090909 28,5.09090909 C40.6322424,5.09090909 50.9090909,15.368097 50.9090909,28.0001697 C50.9090909,40.6322424 40.6320727,50.9090909 28,50.9090909 Z" id="Shape"></path>
                    <path d="M27.9996606,11.8787879 C26.1285818,11.8787879 24.6064,13.4019879 24.6064,15.2742545 C24.6064,17.1448242 26.1285818,18.6666667 27.9996606,18.6666667 C29.8707394,18.6666667 31.3929212,17.1448242 31.3929212,15.2742545 C31.3929212,13.4019879 29.8707394,11.8787879 27.9996606,11.8787879 Z" id="Shape"></path>
                    <path d="M28,23.7575758 C26.5942303,23.7575758 25.4545455,24.8972606 25.4545455,26.3030303 L25.4545455,41.5757576 C25.4545455,42.9815273 26.5942303,44.1212121 28,44.1212121 C29.4057697,44.1212121 30.5454545,42.9815273 30.5454545,41.5757576 L30.5454545,26.3030303 C30.5454545,24.8972606 29.4057697,23.7575758 28,23.7575758 Z" id="Shape"></path>
                </g>
            </g>
        </g>
    </g>
</svg>