<?xml version="1.0" encoding="UTF-8"?>
<svg width="58px" height="56px" viewBox="0 0 58 56" version="1.1" xmlns="http://www.w3.org/2000/svg" xmlns:xlink="http://www.w3.org/1999/xlink">
    <!-- Generator: Sketch 47.1 (45422) - http://www.bohemiancoding.com/sketch -->
    <title>skiing-race</title>
    <desc>Created with Sketch.</desc>
    <defs></defs>
    <g id="Page-1" stroke="none" stroke-width="1" fill="none" fill-rule="evenodd">
        <g id="mobile-copy" transform="translate(-134.000000, -6906.000000)" stroke="#DFBF85" stroke-width="1.5" fill-rule="nonzero">
            <g id="Group-14" transform="translate(61.000000, 6907.000000)">
                <g id="skiing-race" transform="translate(74.000000, 0.000000)">
                    <path d="M44.8841057,7.97207547 C44.2442264,5.44129811 45.7769358,2.87100377 48.3077132,2.23112453 C50.8384906,1.59124528 53.4087849,3.12416604 54.0486642,5.65473208 C54.6885434,8.18550943 53.155834,10.7558038 50.6250566,11.3958943 C48.0944906,12.0357736 45.5241962,10.5028528 44.8841057,7.97207547 Z M33.4641208,42.0684679 L35.504634,39.8117736 C37.7139925,37.3682717 38.7006491,34.0985057 38.2118642,30.8409962 C37.9923019,29.378234 37.4855547,28.0019019 36.7400151,26.7749736 L44.1231396,18.6099623 C45.8842868,16.6620075 45.7329811,13.6555472 43.7852377,11.8941887 C43.4027472,11.5484679 42.9784151,11.279034 42.531683,11.0797585 L41.1747925,10.2706113 C36.886883,7.71341887 31.7036075,7.55260377 27.356317,9.63221132 L14.6827774,0.635864151 C13.8975094,0.0786113208 12.8094189,0.26330566 12.2519547,1.04836226 L12.1279094,1.22312453 C11.5706566,2.00818113 11.7553509,3.09648302 12.5404075,3.65394717 L14.7413132,5.21624151 C13.2075472,5.17292075 11.6735698,5.49455094 10.2706113,6.16697358 L1.93717736,0.251683019 C1.38457358,-0.140528302 0.61874717,-0.0105660377 0.226535849,0.542037736 L0.226535849,0.542037736 C-0.165675472,1.09464151 -0.0357132075,1.86046792 0.516890566,2.25267925 L8.07350943,7.61663396 C7.23266415,8.38478491 7.14855849,9.68609811 7.8970566,10.5544151 C8.31526038,11.0393962 8.90526792,11.2881208 9.49886792,11.2881208 C9.98744151,11.2881208 10.4783396,11.1194868 10.8773132,10.7756679 C12.0554264,9.76006038 13.5686943,9.3184 15.0456151,9.47498868 L11.3299623,13.5839094 C10.1556528,14.8824755 10.2566642,16.8870642 11.5550189,18.0611623 C11.7870491,18.2710038 12.0416906,18.4394264 12.3100679,18.5681208 C12.3233811,18.5765736 12.3356377,18.586083 12.3491623,18.5943245 L13.1999396,19.1017057 C13.9142038,19.527517 14.3943245,20.2432604 14.5177358,21.0657208 C14.6411472,21.8879698 14.3922113,22.7133887 13.8345358,23.3300226 L11.8912302,25.479366 C11.6592,25.7361208 11.5036679,26.0345057 11.4197736,26.3474717 L1.69986415,22.5147472 C1.06949434,22.266234 0.356920755,22.5758189 0.108407547,23.2059774 C-0.14010566,23.8361358 0.169479245,24.5489208 0.799637736,24.797434 L27.0515925,35.1485585 C28.3123321,35.6455849 29.7372679,35.0266264 30.2345057,33.7658868 L15.3892226,27.9125132 L16.9696906,26.1646792 C18.379834,24.6049208 19.0095698,22.5177057 18.6974491,20.4383094 C18.490566,19.0594415 17.8847094,17.8003925 16.9747623,16.7936604 L21.9661585,11.2735396 C22.1400755,11.0810264 22.282717,10.8720302 22.4008453,10.6535245 L24.0400604,11.8170566 C22.7763623,12.9687547 22.6491472,14.9226264 23.7725283,16.2260528 C24.399517,16.9536302 25.2845283,17.3266113 26.175034,17.3266113 C26.9078943,17.3266113 27.6443472,17.0738717 28.2428075,16.5578264 C30.1184906,14.941434 32.5560755,14.2810566 34.8987774,14.6318491 L28.5342189,21.6705208 C27.4998038,22.8148226 27.1302038,24.3232302 27.3920302,25.7310491 C27.4245736,25.9577962 27.4820528,26.1801057 27.5623547,26.3945962 C27.8142491,27.1352755 28.2508377,27.8243925 28.8721208,28.3862943 C29.4657208,28.9228377 30.1577962,29.2787019 30.8828377,29.4633962 C31.4405132,30.1125736 31.8115925,30.9109434 31.9421887,31.7813736 C32.1482264,33.1534792 31.7325585,34.5306566 30.8021132,35.5595774 L28.2185057,38.4168453 C27.8698264,38.8025057 27.636317,39.2509283 27.5103698,39.7206943 L12.7333434,33.8941585 C11.8375547,33.5410415 10.825117,33.9808 10.472,34.8765887 L10.3933887,35.0760755 C10.0402717,35.9718642 10.4800302,36.9843019 11.3758189,37.3374189 L51.2719094,53.0683472 C53.0634868,53.7747925 55.0883623,52.8950642 55.7945962,51.1034868 L55.8732075,50.904 L33.4641208,42.0684679 Z M25.1989434,5.54125283 C26.6735396,5.16848302 27.5665811,3.67085283 27.1936,2.19646792 C26.8208302,0.721871698 25.3232,-0.171169811 23.8488151,0.201811321 C22.3742189,0.574581132 21.4811774,2.07221132 21.8541585,3.54680755 C22.226717,5.02119245 23.7243472,5.91423396 25.1989434,5.54125283 Z" id="Shape"></path>
                </g>
            </g>
        </g>
    </g>
</svg>