<?xml version="1.0" encoding="UTF-8"?>
<svg width="56px" height="56px" viewBox="0 0 56 56" version="1.1" xmlns="http://www.w3.org/2000/svg" xmlns:xlink="http://www.w3.org/1999/xlink">
    <!-- Generator: Sketch 47.1 (45422) - http://www.bohemiancoding.com/sketch -->
    <title>space-suit</title>
    <desc>Created with Sketch.</desc>
    <defs></defs>
    <g id="Page-1" stroke="none" stroke-width="1" fill="none" fill-rule="evenodd">
        <g id="mobile-copy" transform="translate(-128.000000, -6551.000000)" fill-rule="nonzero" fill="#DFBF85">
            <g id="Group-13" transform="translate(61.000000, 6551.000000)">
                <g id="space-suit" transform="translate(67.000000, 0.000000)">
                    <path d="M56,43.8998349 C56,42.3849176 54.7675324,41.1524544 53.2526096,41.1524544 L52.7235908,41.1524544 C54.870881,37.1205858 56,32.6051783 56,28.000101 C56,24.1527161 55.2336534,20.4250469 53.722238,16.9206754 C52.2626138,13.5362534 50.1771691,10.511329 47.5240084,7.92996043 C42.0603257,2.61395455 34.8480167,-0.200064532 27.2136618,0.0110745816 C22.8008852,0.132076233 18.457904,1.33110322 14.6036075,3.48516644 C14.3779708,3.32628601 14.12638,3.19978959 13.8538622,3.11245797 C13.0191232,2.84496833 12.1316576,2.98374027 11.4183883,3.4931163 L6.63372025,6.91074072 C2.47989979,9.87779474 0,14.6965832 0,19.8013331 L0,43.8998349 C0,44.6336777 0.285728601,45.3235625 0.804693111,45.8425252 C0.972926931,46.0107584 1.15916493,46.1544405 1.35908142,46.2719349 L1.08960334,46.676209 C0.37668476,47.7454661 1.42877475e-16,48.9900879 1.42877475e-16,50.2751605 L1.42877475e-16,55.1231764 C1.42877475e-16,55.6074169 0.392584551,56 0.876826722,56 L41.0939457,56 L55.1231733,56 C55.6074154,56 56,55.6074169 56,55.1231764 L56,50.2752774 L56,49.5115057 C56,49.35812 55.9603674,49.2140871 55.8912735,49.0887598 C55.7322756,48.2308756 55.4008351,47.4120393 54.9102797,46.676209 L54.6409186,46.2720518 C54.8408351,46.1545574 55.0270731,46.0108753 55.1953069,45.8425252 C55.7142714,45.3236794 56,44.6336777 56,43.8998349 Z M27.2617119,1.76402024 C34.4172025,1.56913159 41.179524,4.20392794 46.3011273,9.18685777 C51.4247182,14.1717751 54.2463466,20.8531706 54.2463466,28.000101 C54.2463466,32.6339381 53.0275574,37.1702725 50.7178789,41.1524544 L36.6263382,41.1524544 C35.0870981,41.1524544 33.5932192,40.8450985 32.1836326,40.2405579 C32.4616451,39.6471237 32.6179541,38.9857649 32.6179541,38.2881641 C32.6179541,35.7418685 30.5463048,33.6702267 28,33.6702267 C27.1666639,33.6702267 26.3848852,33.8932906 25.709261,34.2809635 L15.6411858,4.91602558 C19.2033236,2.96304723 23.200952,1.87531838 27.2617119,1.76402024 Z M28,35.4238738 C29.5793403,35.4238738 30.8643006,36.7088295 30.8643006,38.2881641 C30.8643006,39.8674987 29.5793403,41.1524544 28,41.1524544 C26.4206597,41.1524544 25.1356994,39.8674987 25.1356994,38.2881641 C25.1356994,36.7088295 26.4206597,35.4238738 28,35.4238738 Z M1.75365344,19.8013331 C1.75365344,15.2617252 3.95904802,10.9762793 7.65306054,8.33774184 L12.4378455,4.92000051 C12.6957495,4.73575065 13.016785,4.68559634 13.3187641,4.78228076 C13.407382,4.81068984 13.4889854,4.85160827 13.5641587,4.90106112 C13.5835658,4.95776238 13.6088184,5.01329454 13.6407349,5.06683923 C13.7169603,5.19462165 13.8206597,5.29574863 13.9396743,5.36776507 C13.9447015,5.38074206 13.9508977,5.3931345 13.9554572,5.40646222 L24.2884509,35.544174 C23.7193319,36.3119207 23.3820459,37.2613452 23.3820459,38.2881641 C23.3820459,40.8344597 25.4536952,42.9061015 28,42.9061015 C29.2182046,42.9061015 30.3268643,42.4312139 31.152952,41.6577386 C31.2197077,41.7171288 31.2965177,41.7675169 31.3827975,41.8055126 C33.043858,42.5358481 34.8080334,42.9061015 36.6263382,42.9061015 L51.2125261,42.9061015 C51.213929,42.9061015 51.2153319,42.9063353 51.2168518,42.9063353 C51.2183716,42.9063353 51.2198914,42.9061015 51.2214113,42.9061015 L53.2527265,42.9061015 C53.8006848,42.9061015 54.2464635,43.3518786 54.2464635,43.8998349 C54.2464635,44.165337 54.1431148,44.4148226 53.955357,44.6024628 C53.7677161,44.7901031 53.5182296,44.8934513 53.2528434,44.8934513 L53.2528434,44.8934513 C53.2528434,44.8934513 53.2528434,44.8934513 53.2528434,44.8934513 L2.75066388,44.8934513 C2.74949478,44.8934513 2.74844259,44.8932175 2.74727349,44.8932175 C2.48188727,44.8932175 2.23240084,44.7899862 2.04464301,44.602229 C1.85700209,44.4145888 1.75365344,44.1651032 1.75365344,43.899718 L1.75365344,19.8013331 Z M1.75365344,52.2588861 L29.8705637,52.2588861 C30.3548058,52.2588861 30.7473904,51.866303 30.7473904,51.3820626 C30.7473904,50.8978222 30.3548058,50.505239 29.8705637,50.505239 L1.75365344,50.505239 L1.75365344,50.2751605 C1.75365344,49.337427 2.0286263,48.4291547 2.54875992,47.6488986 L3.21655115,46.6472154 L52.7833319,46.6472154 L53.4511232,47.6488986 C53.6579374,47.9591772 53.8241837,48.2901489 53.9516159,48.6346821 L42.9645094,48.6346821 C41.4495866,48.6346821 40.217119,49.8671453 40.217119,51.3820626 L40.217119,54.2463529 L1.75365344,54.2463529 L1.75365344,52.2588861 Z M54.2463466,54.2463529 L41.9707724,54.2463529 L41.9707724,51.3820626 C41.9707724,50.8341063 42.4165511,50.3883292 42.9645094,50.3883292 L54.2463466,50.3883292 L54.2463466,54.2463529 Z" id="Shape"></path>
                    <path d="M38.141708,50.7177961 C37.9689256,50.5450138 37.7307328,50.446281 37.4863691,50.446281 C37.2432397,50.446281 37.0050468,50.5450138 36.8322645,50.7177961 C36.6607163,50.8893444 36.5619835,51.1275372 36.5619835,51.3719008 C36.5619835,51.6162645 36.6607163,51.8544573 36.8322645,52.0260055 C37.0050468,52.1987879 37.2432397,52.2975207 37.4863691,52.2975207 C37.7307328,52.2975207 37.9689256,52.1987879 38.141708,52.0260055 C38.3132562,51.8544573 38.4132231,51.6162645 38.4132231,51.3719008 C38.4130997,51.1287713 38.3132562,50.8893444 38.141708,50.7177961 Z" id="Shape"></path>
                    <path d="M33.785124,50.446281 C33.5419945,50.446281 33.3038017,50.5450138 33.1310193,50.7177961 C32.9582369,50.8893444 32.8595041,51.1287713 32.8595041,51.3719008 C32.8595041,51.6150303 32.9582369,51.8544573 33.1310193,52.0260055 C33.3038017,52.1987879 33.5419945,52.2975207 33.785124,52.2975207 C34.0294876,52.2975207 34.2676804,52.1987879 34.4404628,52.0260055 C34.612011,51.8544573 34.7107438,51.6150303 34.7107438,51.3719008 C34.7107438,51.1287713 34.612011,50.8893444 34.4404628,50.7177961 C34.2676804,50.5450138 34.0294876,50.446281 33.785124,50.446281 Z" id="Shape"></path>
                    <path d="M37.0989471,7.29871835 C37.7227471,7.57586385 38.3418929,7.8853005 38.9389603,8.21828785 C39.0754875,8.29440271 39.222994,8.33057851 39.3684718,8.33057851 C39.6847278,8.33057851 39.9913171,8.15965391 40.1540995,7.85762237 C40.3917092,7.41671459 40.2329845,6.86327336 39.7995347,6.62157529 C39.1555659,6.26248795 38.4880867,5.92889363 37.8154758,5.63001836 C37.362454,5.42886633 36.8348435,5.63912301 36.6369746,6.09993962 C36.4392251,6.56075623 36.6460446,7.09744492 37.0989471,7.29871835 Z" id="Shape"></path>
                    <path d="M41.5345192,9.90598299 C45.1356911,12.6526674 47.796677,16.3829285 49.229719,20.6934603 C49.3511223,21.0587121 49.6868209,21.2892562 50.0465472,21.2892562 C50.1379445,21.2892562 50.2309514,21.2744313 50.3223488,21.2430307 C50.7735875,21.0883619 51.0158193,20.5916707 50.8636053,20.1336176 C49.3188171,15.4867834 46.4510086,11.466095 42.5702413,8.50614284 C42.1894763,8.2157157 41.6490246,8.29369212 41.362991,8.68030574 C41.0769575,9.06680264 41.1537543,9.61555585 41.5345192,9.90598299 Z" id="Shape"></path>
                </g>
            </g>
        </g>
    </g>
</svg>