<?xml version="1.0" encoding="UTF-8"?>
<svg width="171px" height="133px" viewBox="0 0 171 133" version="1.1" xmlns="http://www.w3.org/2000/svg" xmlns:xlink="http://www.w3.org/1999/xlink">
    <!-- Generator: Sketch 47.1 (45422) - http://www.bohemiancoding.com/sketch -->
    <title>Group 12</title>
    <desc>Created with Sketch.</desc>
    <defs></defs>
    <g id="Page-1" stroke="none" stroke-width="1" fill="none" fill-rule="evenodd">
        <g id="mobile-copy" transform="translate(-75.000000, -6338.000000)">
            <g id="Group-12" transform="translate(75.000000, 6339.000000)">
                <path d="M29,44.6501545 L29,33.0131534 L29,33.0131534 L85.8509116,0 L141,33.0131534 L141,44.6501545 M141,87.1709183 L141,98.3469817 L85.8509116,131 L29,98.3469817 L29,87.1709183" id="Path-9" stroke="#979797" stroke-width="0.2"></path>
                <text id="ALORS" opacity="0.7" font-family="SpaceMono-Regular, Space Mono" font-size="14" font-weight="normal" letter-spacing="3" fill="#DFBF85">
                    <tspan x="56.08" y="43">ALORS</tspan>
                </text>
                <path d="M17.9304524,56 L17.9304524,75.2436975 C17.9304524,78.6050588 17.1774283,81.2380857 15.6713577,83.1428571 C14.165287,85.0476286 11.9299322,86 8.96522618,86 C6.00052016,86 3.76516535,85.0476286 2.25909469,83.1428571 C0.753024034,81.2380857 0,78.6050588 0,75.2436975 L0,56 L4.69607086,56 L4.69607086,75.2436975 C4.69607086,76.9804008 5.0399716,78.3389307 5.72778339,79.3193277 C6.41559519,80.2997248 7.49473199,80.789916 8.96522618,80.789916 C10.4357204,80.789916 11.5148572,80.2997248 12.202669,79.3193277 C12.8904808,78.3389307 13.2343815,76.9804008 13.2343815,75.2436975 L13.2343815,56 L17.9304524,56 Z M31.5765024,82.6386555 L32.2168757,82.6386555 L32.2168757,56 L36.9129466,56 L36.9129466,85.4117647 L27.7342626,85.4117647 L24.8170065,58.7731092 L24.1766332,58.7731092 L24.1766332,85.4117647 L19.4805623,85.4117647 L19.4805623,56 L28.6592463,56 L31.5765024,82.6386555 Z M39.4591928,56 L55.1839149,56 L55.1839149,61.2941176 L44.1552636,61.2941176 L44.1552636,68.0168067 L54.7569993,68.0168067 L54.7569993,73.3109244 L44.1552636,73.3109244 L44.1552636,80.1176471 L55.6108304,80.1176471 L55.6108304,85.4117647 L39.4591928,85.4117647 L39.4591928,56 Z M77.9222493,56 L93.6469714,56 L93.6469714,61.2941176 L82.6183202,61.2941176 L82.6183202,68.0168067 L93.2200559,68.0168067 L93.2200559,73.3109244 L82.6183202,73.3109244 L82.6183202,80.1176471 L94.0738869,80.1176471 L94.0738869,85.4117647 L77.9222493,85.4117647 L77.9222493,56 Z M108.502615,82.6386555 L109.142989,82.6386555 L109.142989,56 L113.83906,56 L113.83906,85.4117647 L104.660376,85.4117647 L101.74312,58.7731092 L101.102746,58.7731092 L101.102746,85.4117647 L96.4066754,85.4117647 L96.4066754,56 L105.585359,56 L108.502615,82.6386555 Z M114.321881,56 L119.160257,56 L124.034209,82.6386555 L124.674582,82.6386555 L129.548535,56 L134.386911,56 L128.765856,85.4117647 L119.942935,85.4117647 L114.321881,56 Z M135.261071,56 L151.910777,56 L151.910777,61.2941176 L145.933959,61.2941176 L145.933959,80.1176471 L151.910777,80.1176471 L151.910777,85.4117647 L135.261071,85.4117647 L135.261071,80.1176471 L141.237889,80.1176471 L141.237889,61.2941176 L135.261071,61.2941176 L135.261071,56 Z M154.848362,56 L170.573084,56 L170.573084,61.2941176 L159.544433,61.2941176 L159.544433,68.0168067 L170.146169,68.0168067 L170.146169,73.3109244 L159.544433,73.3109244 L159.544433,80.1176471 L171,80.1176471 L171,85.4117647 L154.848362,85.4117647 L154.848362,56 Z" id="UNE-ENVIE" fill="#DFBF85" opacity="0.7"></path>
            </g>
        </g>
    </g>
</svg>